<svg id="visual" viewBox="0 0 960 540" width="960" height="540" xmlns="http://www.w3.org/2000/svg" xmlns:xlink="http://www.w3.org/1999/xlink" version="1.1"><rect x="0" y="0" width="960" height="540" fill="#FFF"></rect><defs><linearGradient id="grad1_0" x1="43.8%" y1="0%" x2="100%" y2="100%"><stop offset="14.444444444444446%" stop-color="#ffffff" stop-opacity="1"></stop><stop offset="85.55555555555554%" stop-color="#ffffff" stop-opacity="1"></stop></linearGradient></defs><defs><linearGradient id="grad2_0" x1="0%" y1="0%" x2="56.3%" y2="100%"><stop offset="14.444444444444446%" stop-color="#ffffff" stop-opacity="1"></stop><stop offset="85.55555555555554%" stop-color="#ffffff" stop-opacity="1"></stop></linearGradient></defs><g transform="translate(960, 0)"><path d="M0 378C-46.5 385.8 -93 393.7 -116.8 359.5C-140.6 325.3 -141.6 249.2 -152.8 210.3C-164.1 171.5 -185.5 169.8 -222.5 161.6C-259.5 153.4 -312 138.7 -340.5 110.6C-369 82.6 -373.5 41.3 -378 0L0 0Z" fill="#ffcd72"></path></g><g transform="translate(0, 540)"><path d="M0 -378C21.1 -323.1 42.1 -268.2 87.1 -268.2C132.2 -268.2 201.2 -323 222.2 -305.8C243.2 -288.6 216.3 -199.4 208.7 -151.6C201.2 -103.9 213 -97.8 244.4 -79.4C275.9 -61.1 326.9 -30.5 378 0L0 0Z" fill="#ffcd72"></path></g></svg>