<svg id="visual" viewBox="0 0 900 900" width="900" height="900" xmlns="http://www.w3.org/2000/svg" xmlns:xlink="http://www.w3.org/1999/xlink" version="1.1"><rect x="0" y="0" width="900" height="900" fill="#ffb94a"></rect><path d="M0 493L30 496.2C60 499.3 120 505.7 180 471.5C240 437.3 300 362.7 360 340.7C420 318.7 480 349.3 540 395.7C600 442 660 504 720 498.7C780 493.3 840 420.7 870 384.3L900 348L900 901L870 901C840 901 780 901 720 901C660 901 600 901 540 901C480 901 420 901 360 901C300 901 240 901 180 901C120 901 60 901 30 901L0 901Z" fill="#FFF" stroke-linecap="round" stroke-linejoin="miter"></path></svg>